# xmcd CD database file
#
# Track frame offsets:
#	150
#	27397
#	72740
#	93575
#	120463
#	142846
#	178622
#	213754
#	251098
#	302820
#
# Disc length: 4289 seconds
#
# Revision: 2
# Processed by: cddbd v1.4PL0 Copyright (c) Steve Scherf et al.
# Submitted via: CDex 1.50
#
DISCID=8d10bf0a
DTITLE=Bugs Henderson and the Shuffle Kings - That's The Truth
DYEAR=1995
DGENRE=Rock
TTITLE0=Foreplay
TTITLE1=Take Your Time
TTITLE2=That's The Truth
TTITLE3=Blue Casino
TTITLE4=Look Out
TTITLE5=Heartbreak Gumbo
TTITLE6=Johnny B. Goode
TTITLE7=Good Stuff
TTITLE8=You Can't Sit Down
TTITLE9=Audio Liner Notes
EXTD=YEAR: 1995
EXTT0=
EXTT1=
EXTT2=
EXTT3=
EXTT4=
EXTT5=
EXTT6=
EXTT7=
EXTT8=
EXTT9=
PLAYORDER=
